<svg
	xmlns="http://www.w3.org/2000/svg"
	viewBox="0 0 100 100"
	aria-label="a pixelated orange quill drawing a straight line"
>
	<path
		fill="#f4672f"
		d="M68.75 0h12.5v31.25h-12.5ZM62.5 6.25h6.25v37.5h-6.25ZM81.25 6.25h6.25v18.75h-6.25ZM56.25 12.5h6.25v18.75h-6.25ZM50 18.75h6.25v37.5h-6.25ZM43.75 25h6.25v37.5h-6.25ZM68.75 31.25h6.25v6.25h-6.25ZM37.5 37.5h6.25v12.5h-6.25ZM56.25 37.5h6.25v12.5h-6.25ZM31.25 43.75h6.25v25h-6.25ZM25 50h6.25v25h-6.25ZM37.5 56.25h6.25v6.25h-6.25ZM18.75 62.5h6.25v18.75h-6.25ZM12.5 68.75h6.25v25h-6.25ZM6.25 81.25h6.25v12.5h-6.25ZM18.75 87.5l81.25 12.5l-81.25-6.25Z"
	/>
</svg>
